<svg width="57" height="57" viewBox="0 0 57 57" fill="none" xmlns="http://www.w3.org/2000/svg">
<rect width="56.5341" height="56.5341" rx="15" fill="url(#paint0_radial)"/>
<path d="M0 21.4492C0 20.3293 0.449442 19.2562 1.24756 18.4706C9.19376 10.6485 20.4393 7.16486 31.4158 9.12496L49.5244 12.3586C53.5805 13.0829 56.5341 16.6106 56.5341 20.7309V28.3962C56.5341 44.0076 43.8785 56.6632 28.267 56.6632C12.6556 56.6632 0 44.0077 0 28.3962V21.4492Z" fill="url(#paint1_linear)"/>
<path d="M0 29.8024C0 26.0691 4.39814 24.075 7.20615 26.5351C17.7757 35.7952 32.7909 38.0016 45.5775 32.1737L49.2999 30.477C52.686 28.9337 56.5341 31.4088 56.5341 35.13V40.7107C56.5341 49.4497 49.4497 56.5341 40.7107 56.5341H16.408C7.34613 56.5341 0 49.188 0 40.1261V29.8024Z" fill="url(#paint2_linear)"/>
<path d="M24.8046 19.8916C24.0768 19.8916 23.4868 20.4805 23.4868 21.207C23.4868 21.9335 24.0768 22.5224 24.8046 22.5224H36.6649C37.3927 22.5224 37.9827 21.9335 37.9827 21.207C37.9827 20.4805 37.3927 19.8916 36.6649 19.8916H24.8046Z" fill="white"/>
<path d="M18.2149 21.207C18.2149 20.4805 18.8049 19.8916 19.5327 19.8916H20.8505C21.5783 19.8916 22.1683 20.4805 22.1683 21.207C22.1683 21.9335 21.5783 22.5224 20.8505 22.5224H19.5327C18.8049 22.5224 18.2149 21.9335 18.2149 21.207Z" fill="white"/>
<path fill-rule="evenodd" clip-rule="evenodd" d="M16.8241 15.9455C15.0045 15.9455 13.5295 17.4178 13.5295 19.2339V29.7569C13.5295 30.4834 14.1195 31.0723 14.8473 31.0723C15.5751 31.0723 16.1651 30.4834 16.1651 29.7569V26.4685H39.8857V36.3338C39.8857 36.697 39.5908 36.9914 39.2268 36.9914H20.1186C19.3908 36.9914 18.8008 37.5804 18.8008 38.3068C18.8008 39.0333 19.3908 39.6222 20.1186 39.6222H39.2268C41.0464 39.6222 42.5214 38.1499 42.5214 36.3338V19.2339C42.5214 17.4178 41.0464 15.9455 39.2268 15.9455H16.8241ZM16.1651 23.8377H39.8857V19.2339C39.8857 18.8707 39.5908 18.5763 39.2268 18.5763H16.8241C16.4602 18.5763 16.1651 18.8707 16.1651 19.2339V23.8377Z" fill="white"/>
<path d="M33.4987 28.1574C33.0068 27.6786 32.2289 27.6575 31.7116 28.1088L27.3197 31.9404L23.8554 28.6289C23.3359 28.1323 22.5134 28.1432 22.0073 28.6535L13.9847 36.7436C13.4727 37.2599 13.477 38.0927 13.9943 38.6038C14.5115 39.1148 15.3459 39.1106 15.8579 38.5943L22.9686 31.4238L26.3676 34.6728C26.8605 35.144 27.6324 35.1616 28.1463 34.7132L32.53 30.8888L34.6111 32.9138C35.1323 33.421 35.9666 33.4104 36.4746 32.8902C36.9827 32.37 36.9721 31.5372 36.451 31.0301L33.4987 28.1574Z" fill="white"/>
<defs>
<radialGradient id="paint0_radial" cx="0" cy="0" r="1" gradientUnits="userSpaceOnUse" gradientTransform="translate(28.267 28.267) rotate(90.3312) scale(31.1483)">
<stop stop-color="#AD15C2"/>
<stop offset="1" stop-color="#F835FF"/>
</radialGradient>
<linearGradient id="paint1_linear" x1="82.6267" y1="13.6104" x2="15.6556" y2="54.4889" gradientUnits="userSpaceOnUse">
<stop stop-color="#C817E1"/>
<stop offset="1" stop-color="#F835FF"/>
</linearGradient>
<linearGradient id="paint2_linear" x1="-50.8807" y1="20.4392" x2="51.7504" y2="46.097" gradientUnits="userSpaceOnUse">
<stop stop-color="#AD15C2"/>
<stop offset="1" stop-color="#F835FF"/>
</linearGradient>
</defs>
</svg>
